# xmcd CD database file generated by Grip 2.96
# 
# Track frame offsets:
#       150
#       5025
#       17172
#       34476
#       52720
#       70539
#       90572
#       107784
#       127627
#       136699
#       160551
#       178423
#       192598
#       206830
# 
# Disc length: 3168 seconds
# 
# Revision: 0
# Processed by: cddbd v1.4PL0 Copyright (c) Steve Scherf et al.
# Submitted via: Grip 2.96
# 
DISCID=b60c5e0e
DTITLE=Outkast - ATLiens
DYEAR=1900
DGENRE=
TTITLE0=You May Die (Intro)
TTITLE1=Two Dope Boyz (In A Cadillac)
TTITLE2=ATLiens
TTITLE3=Wheelz of Steel
TTITLE4=Jazzy Belle
TTITLE5=Elevators (Me and You)
TTITLE6=Ova Da Wudz
TTITLE7=Babylon
TTITLE8=Wailin'
TTITLE9=Mainstream
TTITLE10=Decatur Psalm
TTITLE11=Millenium
TTITLE12=E.T. (Extraterrestrial)
TTITLE13=13th Floor/Growing Old
EXTD=
EXTT0=
EXTT1=
EXTT2=
EXTT3=
EXTT4=
EXTT5=
EXTT6=
EXTT7=
EXTT8=
EXTT9=
EXTT10=
EXTT11=
EXTT12=
EXTT13=
PLAYORDER=
